<svg xmlns="http://www.w3.org/2000/svg" width="1080" height="140"><rect stroke="none" class="background" id="canvas" x="0" y="0" width="1080" height="140" fill="none"/><style>:root{color-scheme:light dark;--c-dark-background: #37353E;--c-dark-cluster-background: transparent;--c-dark-label-background: var(--c-dark-background);--c-dark-edgeLabel-background:#37353e7d;--c-dark-text: #FFFFFF;--c-dark-stroke: var(--c-dark-text);--c-light-background: #ffffff;--c-light-cluster-background: transparent;--c-light-label-background: var(--c-light-background);--c-light-edgeLabel-background:#ffffff9f;--c-light-text: #000000;--c-light-stroke: var(--c-light-text);--c-background: light-dark(var(--c-light-background), var(--c-dark-background));--c-text: light-dark(var(--c-light-text), var(--c-dark-text));--c-stroke: light-dark(var(--c-light-stroke), var(--c-dark-stroke));--stroke-width: 3px;--c-node-stroke: light-dark(var(--c-light-stroke), var(--c-dark-stroke));--c-node-icon: var(--c-dark-stroke);--c-node-fill: #4f77b7;--node-radius: 2px;--c-cluster-background: light-dark(var(--c-light-cluster-background), var(--c-dark-cluster-background));--cluster-opacity: 0.3;--c-cluster-stroke: light-dark(var(--c-light-stroke), var(--c-dark-stroke));--c-cluster-stroke-thickness: 2px;--c-cluster-stroke-radius: 1ex;--c-cluster-label-background: transparent;--c-edge-stroke: light-dark(var(--c-light-stroke), var(--c-dark-stroke));--c-edgeLabel-background: light-dark(var(--c-light-edgeLabel-background), var(--c-dark-edgeLabel-background));--c-edgeLabel-stroke: light-dark(var(--c-light-stroke), var(--c-dark-stroke));--edge-thickness-normal: 3px;--edge-thickness-thick: 6px;--font-family: "trebuchet ms", verdana, arial, sans-serif;--font-size: 16px;--c-group-1-primary: #ed2222;--c-group-1-secondary: var(--c-dark-text);--c-group-2-primary: #999933;--c-group-2-secondary: var(--c-dark-text);--c-group-3-primary: #AA4499;--c-group-3-secondary: var(--c-dark-text);--c-group-4-primary: #009E73;--c-group-4-secondary: var(--c-dark-text);--c-group-5-primary: #D55E00;--c-group-5-secondary: var(--c-dark-text);--c-group-6-primary: #882255;--c-group-6-secondary: var(--c-dark-text);--c-group-7-primary: #6A00FF;--c-group-7-secondary: var(--c-dark-text);--c-group-8-primary: #F0E442;--c-group-8-secondary: var(--c-light-text);--c-group-9-primary: #0072B2;--c-group-9-secondary: var(--c-dark-text);--c-group-10-primary: #88CCEE;--c-group-10-secondary: var(--c-light-text);--c-group-11-primary: #dc98cc;--c-group-11-secondary: var(--c-light-text);--c-group-12-primary: #35df0f;--c-group-12-secondary: var(--c-light-text)}svg{background:var(--c-background);font-family:var(--font-family);color:var(--c-text)}#canvas{fill:var(--c-background)}#nodes .node>rect{fill:var(--c-node-fill);stroke:var(--c-node-stroke);rx:var(--node-radius)}#nodes .node>g.icon{color:var(--c-node-icon)}#nodes .node>.labels>text{fill:var(--c-text)}#nodes .node>.labels>text:first-of-type{dominant-baseline:middle}#nodes .node>.labels>text:nth-of-type(2){dominant-baseline:hanging}#nodes .node>.ports>.port>rect{fill:var(--c-stroke);stroke:var(--c-stroke)}#nodes .node>.ports>.port>.labels>text{fill:var(--c-text);dominant-baseline:middle}#edges>.edge>polyline{stroke:var(--c-edge-stroke);stroke-linejoin:round;fill:none}#edges>.edge>circle{fill:none;stroke:none}#edges>.edge .labels text{fill:var(--c-edge-stroke)}
</style><defs><marker id="arrow" refX="5" refY="5" markerUnits="strokeWidth" markerWidth="10" markerHeight="10" orient="auto"><path d="M 0 0 L 10 5 L 0 10 L 2 5 Z " fill="#222"/></marker><marker id="arrow-open" refX="10" refY="5" markerUnits="strokeWidth" markerWidth="10" markerHeight="10" orient="auto"><path stroke="#222" stroke-width="1.5" d="M 0 0 L 10 5 L 0 10" fill="none"/></marker><marker id="triangle-hollow" refX="10" refY="6" markerUnits="strokeWidth" markerWidth="12" markerHeight="12" orient="auto"><path stroke="#222" stroke-width="1.5" d="M 0 0 L 10 6 L 0 12 Z " fill="white"/></marker><g id="icon-mdi-router"><path xmlns="http://www.w3.org/2000/svg" fill="currentColor" d="M12 2C6.5 2 2 6.5 2 12s4.5 10 10 10s10-4.5 10-10S17.5 2 12 2m0 18c-4.42 0-8-3.58-8-8s3.58-8 8-8s8 3.58 8 8s-3.58 8-8 8m1-7v3h2l-3 3l-3-3h2v-3m-6 0h3v2l3-3l-3-3v2H5m6 0V8H9l3-3l3 3h-2v3m6 0h-3V9l-3 3l3 3v-2h3" /></g><g id="icon-clarity-network-switch-line"><path xmlns="http://www.w3.org/2000/svg" fill="currentColor" d="M33.91 18.47L30.78 8.41A2 2 0 0 0 28.87 7H7.13a2 2 0 0 0-1.91 1.41L2.09 18.48a2 2 0 0 0-.09.59V27a2 2 0 0 0 2 2h28a2 2 0 0 0 2-2v-7.94a2 2 0 0 0-.09-.59M32 27H4v-7.94L7.13 9h21.74L32 19.06Z" class="clr-i-outline clr-i-outline-path-1" /><path xmlns="http://www.w3.org/2000/svg" fill="currentColor" d="M7.12 22h1.8v3h-1.8z" class="clr-i-outline clr-i-outline-path-2" /><path xmlns="http://www.w3.org/2000/svg" fill="currentColor" d="M12.12 22h1.8v3h-1.8z" class="clr-i-outline clr-i-outline-path-3" /><path xmlns="http://www.w3.org/2000/svg" fill="currentColor" d="M17.11 22h1.8v3h-1.8z" class="clr-i-outline clr-i-outline-path-4" /><path xmlns="http://www.w3.org/2000/svg" fill="currentColor" d="M22.1 22h1.8v3h-1.8z" class="clr-i-outline clr-i-outline-path-5" /><path xmlns="http://www.w3.org/2000/svg" fill="currentColor" d="M27.1 22h1.8v3h-1.8z" class="clr-i-outline clr-i-outline-path-6" /><path xmlns="http://www.w3.org/2000/svg" fill="currentColor" d="M6.23 18h23.69v1.4H6.23z" class="clr-i-outline clr-i-outline-path-7" /><path xmlns="http://www.w3.org/2000/svg" fill="none" d="M0 0h36v36H0z" /></g><g id="icon-clarity-firewall-line"><path xmlns="http://www.w3.org/2000/svg" fill="currentColor" d="M32 6H4a2 2 0 0 0-2 2v20a2 2 0 0 0 2 2h28a2 2 0 0 0 2-2V8a2 2 0 0 0-2-2M4 8h28v5.08h-8.2v-4H22v4h-8v-4h-2v4H4Zm0 7h28v6.08h-3.08v-4.81H27v4.81h-8.08v-4.81H17v4.81H8.9v-4.81H7v4.81H4Zm19.8 13v-3.73h-1.6V28H14v-3.73h-1.6V28H4v-5h28v5Z" class="clr-i-outline clr-i-outline-path-1" /><path xmlns="http://www.w3.org/2000/svg" fill="none" d="M0 0h36v36H0z" /></g></defs><g id="nodes"><g id="subgraph_1" class="node subgraph"><rect stroke="black" x="12" y="12" width="470" height="116" rx="2" fill="lightblue"/><g class="labels"><text dominant-baseline="middle" text-anchor="middle" font-size="16.0" fill="#111" x="247.0" y="25.0">Subgraph 1</text></g></g><g id="node_1" class="node router"><rect stroke="black" x="74" y="45" width="50" height="50" rx="2" fill="lightblue"/><g class="icon" transform="translate(99.0,70.0) scale(1.75) translate(-12.0,-12.0)"><use href="#icon-mdi-router"/></g><g class="labels"><text dominant-baseline="middle" text-anchor="middle" font-size="16.0" fill="#111" x="99.0" y="108.0">Node 1</text></g><g class="ports"><g id="node_1_hu0_0_0_0" class="port"><rect stroke="#111" x="124" y="69" width="2" height="2" fill="#444"/><g class="labels"><text dominant-baseline="middle" text-anchor="middle" font-size="6.0" fill="#111" x="152.0" y="75.0">Hu0/0/0/0</text></g></g></g></g><g id="node_2" class="node switch"><rect stroke="black" x="370" y="45" width="50" height="50" rx="2" fill="lightblue"/><g class="icon" transform="translate(395.0,70.0) scale(1.1666666666666667) translate(-18.0,-18.0)"><use href="#icon-clarity-network-switch-line"/></g><g class="labels"><text dominant-baseline="middle" text-anchor="middle" font-size="16.0" fill="#111" x="395.0" y="108.0">Node 2</text></g><g class="ports"><g id="node_2_hu0_0_0_0" class="port"><rect stroke="#111" x="368" y="69" width="2" height="2" fill="#444"/><g class="labels"><text dominant-baseline="middle" text-anchor="middle" font-size="6.0" fill="#111" x="342.0" y="75.0">Hu0/0/0/0</text></g></g></g></g><g id="node_3" class="node router"><rect stroke="black" x="672" y="45" width="50" height="50" rx="2" fill="lightblue"/><g class="icon" transform="translate(697.0,70.0) scale(1.75) translate(-12.0,-12.0)"><use href="#icon-mdi-router"/></g><g class="labels"><text dominant-baseline="middle" text-anchor="middle" font-size="16.0" fill="#111" x="697.0" y="108.0">Node 3</text></g><g class="ports"><g id="node_3_eth0" class="port"><rect stroke="#111" x="722" y="69" width="2" height="2" fill="#444"/><g class="labels"><text dominant-baseline="middle" text-anchor="middle" font-size="6.0" fill="#111" x="750.0" y="75.0">eth0</text></g></g></g></g><g id="node_4" class="node firewall"><rect stroke="black" x="968" y="45" width="50" height="50" rx="2" fill="lightblue"/><g class="icon" transform="translate(993.0,70.0) scale(1.1666666666666667) translate(-18.0,-18.0)"><use href="#icon-clarity-firewall-line"/></g><g class="labels"><text dominant-baseline="middle" text-anchor="middle" font-size="16.0" fill="#111" x="993.0" y="108.0">Node 4</text></g><g class="ports"><g id="node_4_eth1" class="port"><rect stroke="#111" x="966" y="69" width="2" height="2" fill="#444"/><g class="labels"><text dominant-baseline="middle" text-anchor="middle" font-size="6.0" fill="#111" x="940.0" y="75.0">eth1</text></g></g></g></g></g><g id="edges"><g id="fabric_1" class="edge 100G"><polyline stroke="#222" stroke-width="1.0" points="126 70 368 70" marker-end="url(#arrow)" fill="none"/><g class="labels"><text dominant-baseline="middle" text-anchor="middle" font-size="10.0" fill="#111" x="247.0" y="78.0">Fabric 1</text></g></g><g id="uplink_1" class="edge MPLS"><polyline stroke="#222" stroke-width="1.0" points="482 70 672 70" marker-end="url(#arrow)" fill="none"/><g class="labels"><text dominant-baseline="middle" text-anchor="middle" font-size="10.0" fill="#111" x="552.0" y="78.0">Uplink 1</text></g></g><g id="edge_eece9612" class="edge"><polyline stroke="#222" stroke-width="1.0" points="724 70 966 70" marker-end="url(#arrow)" fill="none"/><g class="labels"><text dominant-baseline="middle" text-anchor="middle" font-size="10.0" fill="#111" x="845.0" y="78.0">Edge</text></g></g></g></svg>